<svg width="22" height="22" viewBox="0 0 22 22" fill="none" xmlns="http://www.w3.org/2000/svg">
<rect x="0.5" y="0.5" width="21" height="21" fill="#138ED1" stroke="#75CFFF"/>
<mask id="mask0_1_123" style="mask-type:alpha" maskUnits="userSpaceOnUse" x="2" y="2" width="18" height="18">
<rect x="2.58826" y="2.58826" width="16.8235" height="16.8235" fill="#D9D9D9"/>
</mask>
<g mask="url(#mask0_1_123)">
<path d="M9.28265 13.4642L15.338 7.40885C15.4423 7.3046 15.5661 7.25135 15.7094 7.24909C15.8528 7.24685 15.9788 7.3001 16.0875 7.40885C16.1963 7.51758 16.2507 7.64249 16.2507 7.78359C16.2507 7.92467 16.1963 8.04959 16.0875 8.15833L9.72614 14.5197C9.59943 14.6464 9.45159 14.7098 9.28265 14.7098C9.1137 14.7098 8.96587 14.6464 8.83915 14.5197L5.91256 11.5931C5.80831 11.4889 5.75686 11.3651 5.7582 11.2218C5.75956 11.0784 5.8146 10.9524 5.92334 10.8436C6.03208 10.7349 6.157 10.6805 6.29808 10.6805C6.43918 10.6805 6.56409 10.7349 6.67283 10.8436L9.28265 13.4642Z" fill="white"/>
</g>
</svg>
