<svg width="18" height="18" viewBox="0 0 18 18" fill="none" xmlns="http://www.w3.org/2000/svg">
<mask id="mask0_1_132" style="mask-type:alpha" maskUnits="userSpaceOnUse" x="0" y="0" width="18" height="18">
<rect width="18" height="18" fill="#D9D9D9"/>
</mask>
<g mask="url(#mask0_1_132)">
<path d="M10.2937 15.75L5.25 10.5V9H7.875C8.5375 9 9.10938 8.78437 9.59062 8.35312C10.0719 7.92188 10.3625 7.3875 10.4625 6.75H4.5V5.25H10.2375C10.025 4.8125 9.70938 4.45312 9.29063 4.17188C8.87188 3.89062 8.4 3.75 7.875 3.75H4.5V2.25H13.5V3.75H11.0625C11.2375 3.9625 11.3938 4.19375 11.5312 4.44375C11.6687 4.69375 11.775 4.9625 11.85 5.25H13.5V6.75H11.9813C11.8813 7.8125 11.4438 8.70312 10.6688 9.42188C9.89375 10.1406 8.9625 10.5 7.875 10.5H7.33125L12.375 15.75H10.2937Z" fill="white"/>
</g>
</svg>
