<svg width="16" height="19" viewBox="0 0 16 19" fill="none" xmlns="http://www.w3.org/2000/svg">
<mask id="mask0_1_219" style="mask-type:alpha" maskUnits="userSpaceOnUse" x="0" y="0" width="16" height="19">
<rect width="16" height="19" fill="#D9D9D9"/>
</mask>
<g mask="url(#mask0_1_219)">
<path d="M8.22897 17.1905C8.12849 17.1905 8.03115 17.1704 7.93694 17.1302C7.84274 17.0899 7.75796 17.0296 7.6826 16.9492L3.14202 11.9026C3.05409 11.8088 2.98187 11.6815 2.92535 11.5206C2.86883 11.3598 2.84057 11.2123 2.84057 11.0783C2.84057 10.77 2.94419 10.5053 3.15144 10.2841C3.35868 10.063 3.60675 9.95237 3.89564 9.95237H5.47825C6.14395 9.95237 6.71859 9.72116 7.20216 9.25872C7.68574 8.79629 7.97777 8.22327 8.07825 7.53968H2.84057C2.62704 7.53968 2.44806 7.4626 2.30361 7.30846C2.15917 7.15431 2.08694 6.96331 2.08694 6.73544C2.08694 6.50758 2.15917 6.31657 2.30361 6.16243C2.44806 6.00828 2.62704 5.93121 2.84057 5.93121H7.85216C7.63864 5.46207 7.32149 5.07671 6.90071 4.77513C6.47994 4.47354 6.00579 4.32274 5.47825 4.32274H2.84057C2.62704 4.32274 2.44806 4.24567 2.30361 4.09153C2.15917 3.93738 2.08694 3.74638 2.08694 3.51851C2.08694 3.29065 2.15917 3.09964 2.30361 2.9455C2.44806 2.79135 2.62704 2.71428 2.84057 2.71428H10.3768C10.5903 2.71428 10.7693 2.79135 10.9138 2.9455C11.0582 3.09964 11.1304 3.29065 11.1304 3.51851C11.1304 3.74638 11.0582 3.93738 10.9138 4.09153C10.7693 4.24567 10.5903 4.32274 10.3768 4.32274H8.68115C8.85699 4.55061 9.014 4.79858 9.15216 5.06666C9.29033 5.33474 9.39709 5.62292 9.47245 5.93121H10.3768C10.5903 5.93121 10.7693 6.00828 10.9138 6.16243C11.0582 6.31657 11.1304 6.50758 11.1304 6.73544C11.1304 6.96331 11.0582 7.15431 10.9138 7.30846C10.7693 7.4626 10.5903 7.53968 10.3768 7.53968H9.60434C9.50385 8.67901 9.06424 9.63403 8.2855 10.4048C7.50675 11.1755 6.571 11.5608 5.47825 11.5608H4.93187L8.77535 15.8233C9.00144 16.0779 9.04854 16.3695 8.91665 16.6979C8.78477 17.0263 8.55554 17.1905 8.22897 17.1905Z" fill="#6E6E6E"/>
</g>
</svg>
