<svg width="16" height="19" viewBox="0 0 16 19" fill="none" xmlns="http://www.w3.org/2000/svg">
<mask id="mask0_1_210" style="mask-type:alpha" maskUnits="userSpaceOnUse" x="0" y="0" width="16" height="19">
<rect width="16" height="18.0055" fill="#D9D9D9"/>
</mask>
<g mask="url(#mask0_1_210)">
<path d="M8.229 16.2907C8.12852 16.2907 8.03118 16.2717 7.93698 16.2335C7.84277 16.1954 7.75799 16.1383 7.68263 16.0621L3.14205 11.2796C3.05412 11.1907 2.9819 11.0701 2.92538 10.9176C2.86886 10.7652 2.8406 10.6255 2.8406 10.4985C2.8406 10.2063 2.94422 9.95543 3.15147 9.74584C3.35871 9.53626 3.60678 9.43146 3.89567 9.43146H5.47828C6.14398 9.43146 6.71862 9.21235 7.20219 8.77412C7.68577 8.33589 7.9778 7.79286 8.07828 7.14505H2.8406C2.62707 7.14505 2.44809 7.07201 2.30364 6.92593C2.1592 6.77986 2.08698 6.59885 2.08698 6.38291C2.08698 6.16697 2.1592 5.98596 2.30364 5.83989C2.44809 5.69381 2.62707 5.62077 2.8406 5.62077H7.85219C7.63867 5.17619 7.32152 4.811 6.90074 4.5252C6.47997 4.2394 6.00582 4.0965 5.47828 4.0965H2.8406C2.62707 4.0965 2.44809 4.02346 2.30364 3.87738C2.1592 3.7313 2.08698 3.5503 2.08698 3.33436C2.08698 3.11842 2.1592 2.93741 2.30364 2.79133C2.44809 2.64526 2.62707 2.57222 2.8406 2.57222H10.3768C10.5904 2.57222 10.7693 2.64526 10.9138 2.79133C11.0582 2.93741 11.1305 3.11842 11.1305 3.33436C11.1305 3.5503 11.0582 3.7313 10.9138 3.87738C10.7693 4.02346 10.5904 4.0965 10.3768 4.0965H8.68118C8.85702 4.31243 9.01403 4.54743 9.15219 4.80147C9.29036 5.05552 9.39712 5.32862 9.47248 5.62077H10.3768C10.5904 5.62077 10.7693 5.69381 10.9138 5.83989C11.0582 5.98596 11.1305 6.16697 11.1305 6.38291C11.1305 6.59885 11.0582 6.77986 10.9138 6.92593C10.7693 7.07201 10.5904 7.14505 10.3768 7.14505H9.60437C9.50388 8.22474 9.06427 9.12978 8.28553 9.86016C7.50678 10.5905 6.57103 10.9557 5.47828 10.9557H4.9319L8.77538 14.9951C9.00147 15.2364 9.04857 15.5127 8.91669 15.8239C8.7848 16.1351 8.55557 16.2907 8.229 16.2907Z" fill="#6E6E6E"/>
</g>
</svg>
