<svg width="16" height="19" viewBox="0 0 16 19" fill="none" xmlns="http://www.w3.org/2000/svg">
<mask id="mask0_1_214" style="mask-type:alpha" maskUnits="userSpaceOnUse" x="0" y="0" width="16" height="19">
<rect width="16" height="19" fill="#D9D9D9"/>
</mask>
<g mask="url(#mask0_1_214)">
<path d="M8.22899 17.1905C8.1285 17.1905 8.03116 17.1704 7.93696 17.1302C7.84275 17.0899 7.75797 17.0296 7.68261 16.9492L3.14203 11.9026C3.05411 11.8088 2.98188 11.6815 2.92536 11.5206C2.86884 11.3598 2.84058 11.2123 2.84058 11.0783C2.84058 10.77 2.9442 10.5053 3.15145 10.2841C3.3587 10.063 3.60676 9.95237 3.89565 9.95237H5.47826C6.14396 9.95237 6.7186 9.72116 7.20217 9.25872C7.68575 8.79629 7.97778 8.22327 8.07826 7.53968H2.84058C2.62705 7.53968 2.44807 7.4626 2.30362 7.30846C2.15918 7.15431 2.08696 6.96331 2.08696 6.73544C2.08696 6.50758 2.15918 6.31657 2.30362 6.16243C2.44807 6.00828 2.62705 5.93121 2.84058 5.93121H7.85217C7.63865 5.46207 7.3215 5.07671 6.90072 4.77513C6.47995 4.47354 6.0058 4.32274 5.47826 4.32274H2.84058C2.62705 4.32274 2.44807 4.24567 2.30362 4.09153C2.15918 3.93738 2.08696 3.74638 2.08696 3.51851C2.08696 3.29065 2.15918 3.09964 2.30362 2.9455C2.44807 2.79135 2.62705 2.71428 2.84058 2.71428H10.3768C10.5903 2.71428 10.7693 2.79135 10.9138 2.9455C11.0582 3.09964 11.1304 3.29065 11.1304 3.51851C11.1304 3.74638 11.0582 3.93738 10.9138 4.09153C10.7693 4.24567 10.5903 4.32274 10.3768 4.32274H8.68116C8.857 4.55061 9.01401 4.79858 9.15217 5.06666C9.29034 5.33474 9.3971 5.62292 9.47246 5.93121H10.3768C10.5903 5.93121 10.7693 6.00828 10.9138 6.16243C11.0582 6.31657 11.1304 6.50758 11.1304 6.73544C11.1304 6.96331 11.0582 7.15431 10.9138 7.30846C10.7693 7.4626 10.5903 7.53968 10.3768 7.53968H9.60435C9.50386 8.67901 9.06425 9.63403 8.28551 10.4048C7.50676 11.1755 6.57101 11.5608 5.47826 11.5608H4.93188L8.77536 15.8233C9.00145 16.0779 9.04855 16.3695 8.91667 16.6979C8.78478 17.0263 8.55556 17.1905 8.22899 17.1905Z" fill="#2F2F2F"/>
</g>
</svg>
